<svg width="17" height="16" viewBox="0 0 17 16" fill="none" xmlns="http://www.w3.org/2000/svg">
<path d="M8.5 16L7.2675 14.8665C5.83667 13.5441 4.65375 12.4033 3.71875 11.4441C2.78375 10.485 2.04 9.62398 1.4875 8.86104C0.935 8.09809 0.548958 7.39691 0.329375 6.75749C0.109792 6.11807 0 5.46412 0 4.79564C0 3.42961 0.44625 2.28883 1.33875 1.3733C2.23125 0.457766 3.34333 0 4.675 0C5.41167 0 6.11292 0.159855 6.77875 0.479564C7.44458 0.799273 8.01833 1.24977 8.5 1.83106C8.98167 1.24977 9.55542 0.799273 10.2213 0.479564C10.8871 0.159855 11.5883 0 12.325 0C13.6567 0 14.7688 0.457766 15.6613 1.3733C16.5538 2.28883 17 3.42961 17 4.79564C17 5.46412 16.8902 6.11807 16.6706 6.75749C16.451 7.39691 16.065 8.09809 15.5125 8.86104C14.96 9.62398 14.2163 10.485 13.2813 11.4441C12.3463 12.4033 11.1633 13.5441 9.7325 14.8665L8.5 16ZM8.5 13.6458C9.86 12.396 10.9792 11.3243 11.8575 10.4305C12.7358 9.53679 13.43 8.75931 13.94 8.09809C14.45 7.43688 14.8042 6.84832 15.0025 6.33243C15.2008 5.81653 15.3 5.30427 15.3 4.79564C15.3 3.92371 15.0167 3.19709 14.45 2.6158C13.8833 2.03451 13.175 1.74387 12.325 1.74387C11.6592 1.74387 11.0429 1.93642 10.4763 2.32153C9.90958 2.70663 9.52 3.19709 9.3075 3.79292H7.6925C7.48 3.19709 7.09042 2.70663 6.52375 2.32153C5.95708 1.93642 5.34083 1.74387 4.675 1.74387C3.825 1.74387 3.11667 2.03451 2.55 2.6158C1.98333 3.19709 1.7 3.92371 1.7 4.79564C1.7 5.30427 1.79917 5.81653 1.9975 6.33243C2.19583 6.84832 2.55 7.43688 3.06 8.09809C3.57 8.75931 4.26417 9.53679 5.1425 10.4305C6.02083 11.3243 7.14 12.396 8.5 13.6458Z" fill="#333333"/>
</svg>
