<svg width="19" height="20" viewBox="0 0 19 20" fill="none" xmlns="http://www.w3.org/2000/svg">
<path d="M9.50212 5.12864C6.8063 5.12864 4.63185 7.30358 4.63185 10C4.63185 12.6964 6.8063 14.8714 9.50212 14.8714C12.1979 14.8714 14.3724 12.6964 14.3724 10C14.3724 7.30358 12.1979 5.12864 9.50212 5.12864ZM9.50212 13.167C7.76001 13.167 6.33581 11.7467 6.33581 10C6.33581 8.25326 7.75577 6.83298 9.50212 6.83298C11.2485 6.83298 12.6684 8.25326 12.6684 10C12.6684 11.7467 11.2442 13.167 9.50212 13.167ZM15.7076 4.92938C15.7076 5.56108 15.1989 6.0656 14.5716 6.0656C13.94 6.0656 13.4356 5.55684 13.4356 4.92938C13.4356 4.30191 13.9443 3.79315 14.5716 3.79315C15.1989 3.79315 15.7076 4.30191 15.7076 4.92938ZM18.9332 6.08256C18.8612 4.56053 18.5136 3.21232 17.3988 2.10153C16.2883 0.99074 14.9404 0.643088 13.4187 0.566775C11.8504 0.477742 7.14964 0.477742 5.58132 0.566775C4.06386 0.638849 2.71595 0.9865 1.60117 2.09729C0.486392 3.20808 0.143056 4.55629 0.0667596 6.07832C-0.0222532 7.64699 -0.0222532 12.3488 0.0667596 13.9174C0.138818 15.4395 0.486392 16.7877 1.60117 17.8985C2.71595 19.0093 4.05962 19.3569 5.58132 19.4332C7.14964 19.5223 11.8504 19.5223 13.4187 19.4332C14.9404 19.3612 16.2883 19.0135 17.3988 17.8985C18.5094 16.7877 18.8569 15.4395 18.9332 13.9174C19.0223 12.3488 19.0223 7.65123 18.9332 6.08256ZM16.9071 15.6006C16.5765 16.4316 15.9365 17.0717 15.1015 17.4067C13.851 17.9027 10.8839 17.7882 9.50212 17.7882C8.1203 17.7882 5.14897 17.8985 3.90279 17.4067C3.072 17.076 2.43196 16.4358 2.0971 15.6006C1.60117 14.3499 1.71562 11.3821 1.71562 10C1.71562 8.61787 1.60541 5.64588 2.0971 4.39942C2.42772 3.56845 3.06776 2.92826 3.90279 2.59333C5.15321 2.09729 8.1203 2.21176 9.50212 2.21176C10.8839 2.21176 13.8553 2.10153 15.1015 2.59333C15.9322 2.92402 16.5723 3.56421 16.9071 4.39942C17.4031 5.65012 17.2886 8.61787 17.2886 10C17.2886 11.3821 17.4031 14.3541 16.9071 15.6006Z" fill="#333333"/>
</svg>
