<svg width="13" height="13" viewBox="0 0 13 13" fill="none" xmlns="http://www.w3.org/2000/svg">
<path d="M12.3368 10.8748L9.99991 8.53828C9.89444 8.43282 9.75146 8.37423 9.60145 8.37423H9.21939C9.86631 7.54697 10.2507 6.50644 10.2507 5.37452C10.2507 2.68182 8.06852 0.5 5.37536 0.5C2.68219 0.5 0.5 2.68182 0.5 5.37452C0.5 8.06723 2.68219 10.249 5.37536 10.249C6.50747 10.249 7.54817 9.86471 8.37558 9.2179V9.59989C8.37558 9.74988 8.43417 9.89283 8.53965 9.99829L10.8765 12.3348C11.0969 12.5551 11.4531 12.5551 11.6711 12.3348L12.3345 11.6716C12.5548 11.4513 12.5548 11.0951 12.3368 10.8748ZM5.37536 8.37423C3.7182 8.37423 2.37514 7.03374 2.37514 5.37452C2.37514 3.71765 3.71586 2.37482 5.37536 2.37482C7.03251 2.37482 8.37558 3.71531 8.37558 5.37452C8.37558 7.03139 7.03485 8.37423 5.37536 8.37423Z" fill="#6B6666"/>
</svg>
