<svg width="15" height="17" viewBox="0 0 15 17" fill="none" xmlns="http://www.w3.org/2000/svg">
<path d="M12.1667 16.5C11.5185 16.5 10.9676 16.2667 10.5139 15.8C10.0602 15.3333 9.83333 14.7667 9.83333 14.1C9.83333 14.02 9.85278 13.8333 9.89167 13.54L4.42778 10.26C4.22037 10.46 3.98056 10.6167 3.70833 10.73C3.43611 10.8433 3.14444 10.9 2.83333 10.9C2.18519 10.9 1.63426 10.6667 1.18056 10.2C0.726852 9.73333 0.5 9.16667 0.5 8.5C0.5 7.83333 0.726852 7.26667 1.18056 6.8C1.63426 6.33333 2.18519 6.1 2.83333 6.1C3.14444 6.1 3.43611 6.15667 3.70833 6.27C3.98056 6.38333 4.22037 6.54 4.42778 6.74L9.89167 3.46C9.86574 3.36667 9.84954 3.27667 9.84306 3.19C9.83657 3.10333 9.83333 3.00667 9.83333 2.9C9.83333 2.23333 10.0602 1.66667 10.5139 1.2C10.9676 0.733333 11.5185 0.5 12.1667 0.5C12.8148 0.5 13.3657 0.733333 13.8194 1.2C14.2731 1.66667 14.5 2.23333 14.5 2.9C14.5 3.56667 14.2731 4.13333 13.8194 4.6C13.3657 5.06667 12.8148 5.3 12.1667 5.3C11.8556 5.3 11.5639 5.24333 11.2917 5.13C11.0194 5.01667 10.7796 4.86 10.5722 4.66L5.10833 7.94C5.13426 8.03333 5.15046 8.12333 5.15694 8.21C5.16343 8.29667 5.16667 8.39333 5.16667 8.5C5.16667 8.60667 5.16343 8.70333 5.15694 8.79C5.15046 8.87667 5.13426 8.96667 5.10833 9.06L10.5722 12.34C10.7796 12.14 11.0194 11.9833 11.2917 11.87C11.5639 11.7567 11.8556 11.7 12.1667 11.7C12.8148 11.7 13.3657 11.9333 13.8194 12.4C14.2731 12.8667 14.5 13.4333 14.5 14.1C14.5 14.7667 14.2731 15.3333 13.8194 15.8C13.3657 16.2667 12.8148 16.5 12.1667 16.5ZM12.1667 14.9C12.387 14.9 12.5718 14.8233 12.7208 14.67C12.8699 14.5167 12.9444 14.3267 12.9444 14.1C12.9444 13.8733 12.8699 13.6833 12.7208 13.53C12.5718 13.3767 12.387 13.3 12.1667 13.3C11.9463 13.3 11.7616 13.3767 11.6125 13.53C11.4634 13.6833 11.3889 13.8733 11.3889 14.1C11.3889 14.3267 11.4634 14.5167 11.6125 14.67C11.7616 14.8233 11.9463 14.9 12.1667 14.9ZM2.83333 9.3C3.0537 9.3 3.23843 9.22333 3.3875 9.07C3.53657 8.91667 3.61111 8.72667 3.61111 8.5C3.61111 8.27333 3.53657 8.08333 3.3875 7.93C3.23843 7.77667 3.0537 7.7 2.83333 7.7C2.61296 7.7 2.42824 7.77667 2.27917 7.93C2.13009 8.08333 2.05556 8.27333 2.05556 8.5C2.05556 8.72667 2.13009 8.91667 2.27917 9.07C2.42824 9.22333 2.61296 9.3 2.83333 9.3ZM12.1667 3.7C12.387 3.7 12.5718 3.62333 12.7208 3.47C12.8699 3.31667 12.9444 3.12667 12.9444 2.9C12.9444 2.67333 12.8699 2.48333 12.7208 2.33C12.5718 2.17667 12.387 2.1 12.1667 2.1C11.9463 2.1 11.7616 2.17667 11.6125 2.33C11.4634 2.48333 11.3889 2.67333 11.3889 2.9C11.3889 3.12667 11.4634 3.31667 11.6125 3.47C11.7616 3.62333 11.9463 3.7 12.1667 3.7Z" fill="#333333"/>
</svg>
