<svg width="23" height="20" viewBox="0 0 23 20" fill="none" xmlns="http://www.w3.org/2000/svg">
<path d="M20.6358 5.23514C20.6504 5.44294 20.6504 5.65079 20.6504 5.85859C20.6504 12.1968 15.9074 19.5 7.2386 19.5C4.5679 19.5 2.08694 18.7132 0 17.3477C0.379457 17.3922 0.744269 17.407 1.13832 17.407C3.34198 17.407 5.37057 16.65 6.9905 15.3586C4.91816 15.3141 3.18147 13.9336 2.58311 12.0336C2.87501 12.0781 3.16687 12.1078 3.47337 12.1078C3.89658 12.1078 4.31984 12.0484 4.71385 11.9445C2.55395 11.4992 0.933974 9.56952 0.933974 7.23905V7.1797C1.56149 7.53595 2.29125 7.75861 3.06467 7.78826C1.795 6.9273 0.963174 5.45779 0.963174 3.79528C0.963174 2.90467 1.19663 2.08826 1.60529 1.37576C3.92574 4.28513 7.41371 6.1851 11.3248 6.39295C11.2519 6.0367 11.2081 5.66564 11.2081 5.29454C11.2081 2.65232 13.3096 0.5 15.9219 0.5C17.2792 0.5 18.5051 1.0789 19.3661 2.01406C20.4314 1.80626 21.453 1.40546 22.3579 0.856253C22.0076 1.96956 21.2633 2.90472 20.2855 3.49842C21.2342 3.39457 22.1536 3.12732 23 2.75627C22.358 3.70623 21.5553 4.55229 20.6358 5.23514Z" fill="#333333"/>
</svg>
